<?xml version="1.0" encoding="utf-8"?>
<!-- Generator: Adobe Illustrator 27.0.1, SVG Export Plug-In . SVG Version: 6.00 Build 0)  -->
<svg version="1.1" id="Layer_1" xmlns="http://www.w3.org/2000/svg" xmlns:xlink="http://www.w3.org/1999/xlink" x="0px" y="0px"
	 viewBox="0 0 70 70" style="enable-background:new 0 0 70 70;" xml:space="preserve">
<style type="text/css">
	.st0{fill:#225FAC;}
	.st1{fill:#00B2E2;}
	.st2{opacity:0.3;}
	.st3{fill:#FFFFFF;}
	.st4{fill:url(#SVGID_1_);}
	.st5{fill:url(#SVGID_00000075152071107286502400000016857432645963723678_);}
	.st6{fill:url(#SVGID_00000159429766329373819660000002519007990529760152_);}
	.st7{fill:url(#SVGID_00000103962872822568080080000000193917414268310164_);}
	.st8{fill:url(#SVGID_00000067930156210681366640000018411462220893850779_);}
	.st9{fill:url(#SVGID_00000084496687648401032420000017404236409612227201_);}
	.st10{opacity:0.3;fill:url(#SVGID_00000000211952654837903010000015593647941250662017_);}
	.st11{opacity:0.3;fill:url(#SVGID_00000003084416810830401050000017633700782270505640_);}
	.st12{opacity:0.3;fill:url(#SVGID_00000085931059583201078420000012301472888277617568_);}
	.st13{opacity:0.3;fill:url(#SVGID_00000141437677173533522950000012896464358285869748_);}
	.st14{opacity:0.3;fill:url(#SVGID_00000177457336437054897530000013173970136513938364_);}
	.st15{opacity:0.3;fill:url(#SVGID_00000122698202772894164260000017713061258948683950_);}
	.st16{opacity:0.3;fill:url(#SVGID_00000024713300917737487780000006742993214907959455_);}
	.st17{opacity:0.15;fill:url(#SVGID_00000090990328511521523420000012183854809621089666_);}
</style>
<g>
	<path class="st0" d="M9.2,35.87c0.84-1.22,1.84-2.34,2.99-3.34l3.61-3.11l11.5-9.92c0.5,0.72,1.1,1.39,1.79,1.98l6.09,5.25
		l-10.16,8.76l-6.37,5.49c-0.6,0.52-1.09,1.12-1.46,1.78c-1.43,2.55-1.13,5.91,1.08,8.15c2.37,2.41,6.17,2.47,8.77,0.35l8.13,7.01
		l-1.41,1.22c-7.1,6.12-17.68,5.24-23.73-1.92C4.79,51.37,4.75,42.32,9.2,35.87z"/>
	<path class="st0" d="M35.18,12.71l7.37-6.36c3.13,3.83,3.21,9.25,0.5,13.14L35.18,12.71z"/>
	<path class="st0" d="M35.18,44.25l10.16-8.76l4.33-3.73c1.46-1.26,3.15-2.04,4.89-2.35c3.56-0.65,7.34,0.62,9.83,3.67l-3.23,2.79
		l-7.99,6.89l-9.85,8.49c-0.05-0.04-0.1-0.08-0.15-0.12L35.18,44.25z"/>
</g>
<g>
	<path class="st1" d="M27.8,6.35l7.38,6.36l7.87,6.79l11.51,9.92c-1.75,0.31-3.43,1.09-4.89,2.35l-4.33,3.73l-10.16-8.76l-6.09-5.25
		c-0.69-0.6-1.29-1.26-1.79-1.98C24.6,15.61,24.67,10.18,27.8,6.35z"/>
	<path class="st1" d="M17.2,42.76c0.37-0.66,0.86-1.27,1.46-1.78l6.37-5.49l10.16,8.76l7.98,6.88c0.05,0.04,0.1,0.08,0.15,0.12
		c2.6,2.12,6.4,2.06,8.77-0.35c2.2-2.23,2.51-5.6,1.08-8.15l7.99-6.89c4.46,6.45,4.42,15.5-0.83,21.7
		c-6.05,7.16-16.63,8.04-23.73,1.92l-1.42-1.22l-8.13-7.01L17.2,42.76z"/>
	<path class="st1" d="M5.97,33.08c2.49-3.04,6.28-4.32,9.83-3.67l-3.61,3.11c-1.15,1-2.16,2.12-2.99,3.34L5.97,33.08z"/>
</g>
<g class="st2">
	<path class="st3" d="M10.04,57.57c6.05,7.16,16.64,8.04,23.73,1.92l1.41-1.22l-4.06-3.51l-0.71,0.61c-2.2,1.9-4.89,2.82-7.55,2.82
		c-3.35,0-6.69-1.47-9.01-4.32c-3.47-4.25-3.61-10.24-0.68-14.6c0.59-0.88,1.3-1.69,2.14-2.41l1.44-1.24l4.23-3.64l10.16-8.76
		l-2.02-1.75c-0.69-0.6-1.29-1.26-1.79-1.98l-11.5,9.92l-3.61,3.11c-0.47,0.4-0.91,0.83-1.32,1.27c-0.62,0.65-1.18,1.35-1.68,2.07
		C4.75,42.32,4.79,51.37,10.04,57.57z"/>
	
		<linearGradient id="SVGID_1_" gradientUnits="userSpaceOnUse" x1="-561.4586" y1="-531.8981" x2="-554.8936" y2="-539.669" gradientTransform="matrix(-1 0 0 -1 -516 -521.712)">
		<stop  offset="0" style="stop-color:#FFFFFF"/>
		<stop  offset="0.108" style="stop-color:#FAFAFA"/>
		<stop  offset="0.2318" style="stop-color:#ECECEC"/>
		<stop  offset="0.3633" style="stop-color:#D5D5D5"/>
		<stop  offset="0.5004" style="stop-color:#B5B5B5"/>
		<stop  offset="0.6417" style="stop-color:#8C8C8C"/>
		<stop  offset="0.7865" style="stop-color:#595959"/>
		<stop  offset="0.9316" style="stop-color:#1E1E1E"/>
		<stop  offset="1" style="stop-color:#000000"/>
	</linearGradient>
	<path class="st4" d="M38.88,15.9l4.17,3.59c2.61-3.75,2.63-8.92-0.17-12.72l-3.18,7.55C39.47,14.88,39.2,15.4,38.88,15.9z"/>
	<path class="st3" d="M39.7,14.32l3.18-7.55c-0.1-0.14-0.21-0.28-0.33-0.42l-7.37,6.36l3.7,3.19C39.2,15.4,39.47,14.88,39.7,14.32z"
		/>
	<path class="st3" d="M27.48,6.77c0.1-0.14,0.21-0.28,0.33-0.42l7.38,6.36l3.7,3.19l4.17,3.59l11.51,9.92
		c-1.75,0.31-3.43,1.09-4.89,2.35l-0.26,0.23l-10.16-8.76l-4.06-3.51l-1.62-1.4c-0.81-0.7-1.51-1.52-2.08-2.43
		c-0.32-0.5-0.6-1.03-0.83-1.57L27.48,6.77z"/>
	
		<linearGradient id="SVGID_00000101088100525462065890000005971330576549095347_" gradientUnits="userSpaceOnUse" x1="-544.8361" y1="-536.319" x2="-575.9083" y2="-563.5071" gradientTransform="matrix(-1 0 0 -1 -516 -521.712)">
		<stop  offset="0" style="stop-color:#FFFFFF"/>
		<stop  offset="1" style="stop-color:#000000"/>
	</linearGradient>
	<path style="fill:url(#SVGID_00000101088100525462065890000005971330576549095347_);" d="M27.48,6.77l3.18,7.55
		c0.23,0.55,0.51,1.07,0.83,1.57c0.57,0.91,1.27,1.73,2.08,2.43l1.62,1.4l4.06,3.51l10.16,8.76l-4.06,3.5l-10.16-8.76l-4.06-3.51
		l-2.02-1.75c-0.69-0.6-1.29-1.26-1.79-1.98C24.7,15.75,24.67,10.57,27.48,6.77z"/>
	<path class="st3" d="M17.2,42.76c0.37-0.66,0.86-1.27,1.46-1.78l2.3-1.99l10.16,8.76l4.06,3.51l4.06,3.5l0.71,0.61
		c2.2,1.9,4.89,2.82,7.55,2.82c3.35,0,6.69-1.47,9.01-4.32c3.47-4.25,3.61-10.25,0.68-14.6l3.96-3.41c4.46,6.45,4.42,15.5-0.83,21.7
		c-6.05,7.16-16.63,8.04-23.73,1.92l-1.42-1.22l-4.06-3.51l-4.07-3.51L17.2,42.76z"/>
	
		<linearGradient id="SVGID_00000031917774863817061920000007122918455530811811_" gradientUnits="userSpaceOnUse" x1="-566.1682" y1="-542.6139" x2="-531.2982" y2="-574.8321" gradientTransform="matrix(-1 0 0 -1 -516 -521.712)">
		<stop  offset="0" style="stop-color:#FFFFFF"/>
		<stop  offset="0.108" style="stop-color:#FAFAFA"/>
		<stop  offset="0.2318" style="stop-color:#ECECEC"/>
		<stop  offset="0.3633" style="stop-color:#D5D5D5"/>
		<stop  offset="0.5004" style="stop-color:#B5B5B5"/>
		<stop  offset="0.6417" style="stop-color:#8C8C8C"/>
		<stop  offset="0.7865" style="stop-color:#595959"/>
		<stop  offset="0.9316" style="stop-color:#1E1E1E"/>
		<stop  offset="1" style="stop-color:#000000"/>
	</linearGradient>
	<path style="fill:url(#SVGID_00000031917774863817061920000007122918455530811811_);" d="M13.16,39.28
		c0.59-0.88,1.3-1.69,2.14-2.41l1.44-1.24l4.23-3.64l10.16-8.76l4.06,3.51l-10.16,8.76l-4.07,3.51l-2.3,1.99
		c-0.6,0.52-1.09,1.12-1.46,1.78c-1.43,2.55-1.13,5.91,1.08,8.15c2.37,2.41,6.17,2.47,8.77,0.35l4.07,3.51l-0.71,0.61
		c-2.2,1.9-4.89,2.82-7.55,2.82c-3.35,0-6.69-1.47-9.01-4.32C10.38,49.63,10.24,43.64,13.16,39.28z"/>
	
		<linearGradient id="SVGID_00000165920031466320902090000003400911492949803199_" gradientUnits="userSpaceOnUse" x1="-531.8099" y1="-553.2362" x2="-522.3267" y2="-553.2362" gradientTransform="matrix(-1 0 0 -1 -516 -521.712)">
		<stop  offset="0" style="stop-color:#FFFFFF"/>
		<stop  offset="1" style="stop-color:#000000"/>
	</linearGradient>
	<path style="fill:url(#SVGID_00000165920031466320902090000003400911492949803199_);" d="M12.2,32.53l3.61-3.11
		c-3.4-0.62-7,0.51-9.48,3.26l4.56,1.12C11.29,33.36,11.73,32.93,12.2,32.53z"/>
	<path class="st3" d="M9.21,35.87c0.5-0.72,1.06-1.42,1.68-2.07l-4.56-1.12c-0.12,0.13-0.24,0.26-0.35,0.4L9.21,35.87z"/>
	
		<linearGradient id="SVGID_00000127017386229268614280000015676032085094083200_" gradientUnits="userSpaceOnUse" x1="-580.0359" y1="-560.2164" x2="-551.1839" y2="-560.2164" gradientTransform="matrix(-1 0 0 -1 -516 -521.712)">
		<stop  offset="0" style="stop-color:#FFFFFF"/>
		<stop  offset="0.108" style="stop-color:#FAFAFA"/>
		<stop  offset="0.2318" style="stop-color:#ECECEC"/>
		<stop  offset="0.3633" style="stop-color:#D5D5D5"/>
		<stop  offset="0.5004" style="stop-color:#B5B5B5"/>
		<stop  offset="0.6417" style="stop-color:#8C8C8C"/>
		<stop  offset="0.7865" style="stop-color:#595959"/>
		<stop  offset="0.9316" style="stop-color:#1E1E1E"/>
		<stop  offset="1" style="stop-color:#000000"/>
	</linearGradient>
	<path style="fill:url(#SVGID_00000127017386229268614280000015676032085094083200_);" d="M35.18,44.25l10.16-8.76l4.06-3.5
		l0.26-0.23c1.46-1.26,3.15-2.04,4.89-2.35c3.4-0.62,7,0.51,9.48,3.26l-4.55,1.11l-3.23,0.79c-0.91,0.23-1.8,0.57-2.62,1.05
		c-0.61,0.34-1.19,0.74-1.72,1.2l-2.51,2.16l-10.16,8.76L35.18,44.25z"/>
	<path class="st3" d="M39.25,47.76l10.16-8.76l2.51-2.16c0.53-0.46,1.11-0.86,1.72-1.2c0.82-0.47,1.7-0.82,2.62-1.05l3.23-0.79
		l4.55-1.11c0.12,0.13,0.24,0.26,0.35,0.4l-3.23,2.79l-3.96,3.41l-4.04,3.48l-9.85,8.49c-0.05-0.04-0.1-0.08-0.15-0.12L39.25,47.76z
		"/>
	
		<linearGradient id="SVGID_00000009570934613284017680000000302540149445206687_" gradientUnits="userSpaceOnUse" x1="-527.8849" y1="-537.0726" x2="-592.0999" y2="-593.217" gradientTransform="matrix(-1 0 0 -1 -516 -521.712)">
		<stop  offset="0" style="stop-color:#FFFFFF"/>
		<stop  offset="1" style="stop-color:#000000"/>
	</linearGradient>
	<path style="fill:url(#SVGID_00000009570934613284017680000000302540149445206687_);" d="M20.96,38.99l4.07-3.51l10.16,8.76
		l4.06,3.51l3.92,3.38c0.05,0.04,0.1,0.08,0.15,0.12c2.6,2.12,6.4,2.06,8.77-0.35c2.2-2.23,2.51-5.6,1.08-8.15l4.04-3.48
		c2.92,4.35,2.79,10.35-0.68,14.6c-2.33,2.85-5.66,4.32-9.01,4.32c-2.66,0-5.35-0.93-7.55-2.82l-0.71-0.61l-4.06-3.5l-4.06-3.51
		L20.96,38.99z"/>
</g>
<g>
	
		<radialGradient id="SVGID_00000124882629840355835850000017809156965916891285_" cx="-579.8679" cy="-581.425" r="10.6145" gradientTransform="matrix(-0.7135 0 0 -0.7333 -369.2885 -384.2678)" gradientUnits="userSpaceOnUse">
		<stop  offset="0.7055" style="stop-color:#FFFFFF"/>
		<stop  offset="0.7598" style="stop-color:#FCFCFC"/>
		<stop  offset="0.7989" style="stop-color:#F3F3F3"/>
		<stop  offset="0.8333" style="stop-color:#E3E3E3"/>
		<stop  offset="0.865" style="stop-color:#CDCDCD"/>
		<stop  offset="0.8948" style="stop-color:#B0B0B0"/>
		<stop  offset="0.9232" style="stop-color:#8C8C8C"/>
		<stop  offset="0.9505" style="stop-color:#626262"/>
		<stop  offset="0.9763" style="stop-color:#333333"/>
		<stop  offset="1" style="stop-color:#000000"/>
	</radialGradient>
	<path style="opacity:0.3;fill:url(#SVGID_00000124882629840355835850000017809156965916891285_);" d="M39.68,40.36l-4.65,4.01
		l7.98,6.88c0.05,0.04,0.1,0.08,0.15,0.12l4.5-3.88C45.31,46.96,41.5,45.3,39.68,40.36z"/>
	
		<radialGradient id="SVGID_00000018225180162515195990000008471702118805496733_" cx="-579.3466" cy="-538.4968" r="12.4705" gradientTransform="matrix(-0.7135 0 0 -0.7333 -369.2885 -384.2678)" gradientUnits="userSpaceOnUse">
		<stop  offset="0.566" style="stop-color:#FFFFFF"/>
		<stop  offset="0.6091" style="stop-color:#FFFFFF"/>
		<stop  offset="0.6146" style="stop-color:#FFFFFF"/>
		<stop  offset="0.6474" style="stop-color:#F5F5F5"/>
		<stop  offset="0.702" style="stop-color:#DCDCDC"/>
		<stop  offset="0.772" style="stop-color:#B2B2B2"/>
		<stop  offset="0.8544" style="stop-color:#787878"/>
		<stop  offset="0.9462" style="stop-color:#2E2E2E"/>
		<stop  offset="1" style="stop-color:#000000"/>
	</radialGradient>
	<path style="opacity:0.3;fill:url(#SVGID_00000018225180162515195990000008471702118805496733_);" d="M42.9,19.62
		c1.35-1.94,2.01-4.27,1.94-6.58c-1.51-1.09-3.07-2.66-4.31-4.94l-5.5,4.74L42.9,19.62z"/>
	
		<radialGradient id="SVGID_00000163068367569520987270000012078025263652927657_" cx="-548.1954" cy="-612.3322" r="23.1204" gradientTransform="matrix(-0.7135 0 0 -0.7333 -369.2885 -384.2678)" gradientUnits="userSpaceOnUse">
		<stop  offset="0.5764" style="stop-color:#FFFFFF"/>
		<stop  offset="0.623" style="stop-color:#FCFCFC"/>
		<stop  offset="0.6565" style="stop-color:#F3F3F3"/>
		<stop  offset="0.686" style="stop-color:#E3E3E3"/>
		<stop  offset="0.7132" style="stop-color:#CDCDCD"/>
		<stop  offset="0.7388" style="stop-color:#B0B0B0"/>
		<stop  offset="0.7631" style="stop-color:#8C8C8C"/>
		<stop  offset="0.7865" style="stop-color:#626262"/>
		<stop  offset="0.8086" style="stop-color:#333333"/>
		<stop  offset="0.829" style="stop-color:#000000"/>
	</radialGradient>
	<path style="opacity:0.3;fill:url(#SVGID_00000163068367569520987270000012078025263652927657_);" d="M23.83,63.65
		c3.48-0.23,6.91-1.56,9.78-4.04l1.41-1.22l-8.13-7.01c-1.17,0.95-2.57,1.46-3.97,1.52C24.2,55.87,24.08,60.62,23.83,63.65z"/>
	
		<radialGradient id="SVGID_00000157266038255424438350000015353267621582190473_" cx="-547.4021" cy="-568.092" r="18.8325" gradientTransform="matrix(-0.7135 0 0 -0.7333 -369.2885 -384.2678)" gradientUnits="userSpaceOnUse">
		<stop  offset="0.566" style="stop-color:#FFFFFF"/>
		<stop  offset="0.646" style="stop-color:#FCFCFC"/>
		<stop  offset="0.7037" style="stop-color:#F3F3F3"/>
		<stop  offset="0.7544" style="stop-color:#E3E3E3"/>
		<stop  offset="0.8011" style="stop-color:#CDCDCD"/>
		<stop  offset="0.845" style="stop-color:#B0B0B0"/>
		<stop  offset="0.8869" style="stop-color:#8C8C8C"/>
		<stop  offset="0.9271" style="stop-color:#626262"/>
		<stop  offset="0.965" style="stop-color:#333333"/>
		<stop  offset="1" style="stop-color:#000000"/>
	</radialGradient>
	<path style="opacity:0.3;fill:url(#SVGID_00000157266038255424438350000015353267621582190473_);" d="M28.99,32.06l6.04-5.21
		l-6.09-5.25c-0.69-0.6-1.29-1.26-1.79-1.98l-5.99,5.17C25.42,26.82,27.8,29.96,28.99,32.06z"/>
	
		<radialGradient id="SVGID_00000021842165431689258610000003071823585672928438_" cx="-572.4818" cy="-600.6467" r="34.2101" gradientTransform="matrix(-0.7135 0 0 -0.7333 -369.2885 -384.2678)" gradientUnits="userSpaceOnUse">
		<stop  offset="0.7521" style="stop-color:#FFFFFF"/>
		<stop  offset="0.7978" style="stop-color:#FCFCFC"/>
		<stop  offset="0.8308" style="stop-color:#F3F3F3"/>
		<stop  offset="0.8597" style="stop-color:#E3E3E3"/>
		<stop  offset="0.8864" style="stop-color:#CDCDCD"/>
		<stop  offset="0.9115" style="stop-color:#B0B0B0"/>
		<stop  offset="0.9354" style="stop-color:#8C8C8C"/>
		<stop  offset="0.9584" style="stop-color:#626262"/>
		<stop  offset="0.98" style="stop-color:#333333"/>
		<stop  offset="1" style="stop-color:#000000"/>
	</radialGradient>
	<path style="opacity:0.3;fill:url(#SVGID_00000021842165431689258610000003071823585672928438_);" d="M18.5,41.11
		c-0.6,0.52-1.09,1.12-1.46,1.78l4.99,4.3c1.05-2.04,3.37-4.8,8.47-6.72l-5.63-4.86L18.5,41.11z"/>
	
		<radialGradient id="SVGID_00000091736713919682906210000001492318542993098152_" cx="-521.4987" cy="-560.0982" r="17.9749" gradientTransform="matrix(-0.7135 0 0 -0.7333 -369.2885 -384.2678)" gradientUnits="userSpaceOnUse">
		<stop  offset="0.566" style="stop-color:#FFFFFF"/>
		<stop  offset="0.646" style="stop-color:#FCFCFC"/>
		<stop  offset="0.7037" style="stop-color:#F3F3F3"/>
		<stop  offset="0.7544" style="stop-color:#E3E3E3"/>
		<stop  offset="0.8011" style="stop-color:#CDCDCD"/>
		<stop  offset="0.845" style="stop-color:#B0B0B0"/>
		<stop  offset="0.8869" style="stop-color:#8C8C8C"/>
		<stop  offset="0.9271" style="stop-color:#626262"/>
		<stop  offset="0.965" style="stop-color:#333333"/>
		<stop  offset="1" style="stop-color:#000000"/>
	</radialGradient>
	<path style="opacity:0.3;fill:url(#SVGID_00000091736713919682906210000001492318542993098152_);" d="M9.05,35.99
		c0.84-1.22,1.84-2.34,2.99-3.34l3.61-3.11c-1.89-0.34-3.83-0.14-5.62,0.57l-3.28,3.9L9.05,35.99z"/>
	
		<radialGradient id="SVGID_00000009576675456966793830000017643631696632164997_" cx="-573.0309" cy="-560.6475" r="14.064" gradientTransform="matrix(-0.7135 0 0 -0.7333 -369.2885 -384.2678)" gradientUnits="userSpaceOnUse">
		<stop  offset="0.7055" style="stop-color:#FFFFFF"/>
		<stop  offset="0.7598" style="stop-color:#FCFCFC"/>
		<stop  offset="0.7989" style="stop-color:#F3F3F3"/>
		<stop  offset="0.8333" style="stop-color:#E3E3E3"/>
		<stop  offset="0.865" style="stop-color:#CDCDCD"/>
		<stop  offset="0.8948" style="stop-color:#B0B0B0"/>
		<stop  offset="0.9232" style="stop-color:#8C8C8C"/>
		<stop  offset="0.9505" style="stop-color:#626262"/>
		<stop  offset="0.9763" style="stop-color:#333333"/>
		<stop  offset="1" style="stop-color:#000000"/>
	</radialGradient>
	<path style="opacity:0.3;fill:url(#SVGID_00000009576675456966793830000017643631696632164997_);" d="M39.95,31.1l5.24,4.52
		l4.33-3.73c1.46-1.26,3.15-2.04,4.89-2.35l-7.19-6.2C45.06,27.48,42.26,29.8,39.95,31.1z"/>
	
		<radialGradient id="SVGID_00000083091135694328884360000005180565968129028778_" cx="-600.8566" cy="-588.8391" r="15.5791" gradientTransform="matrix(-0.7135 0 0 -0.7333 -369.2885 -384.2678)" gradientUnits="userSpaceOnUse">
		<stop  offset="0.4881" style="stop-color:#FFFFFF"/>
		<stop  offset="0.5169" style="stop-color:#F8F8F8"/>
		<stop  offset="0.5596" style="stop-color:#E4E4E4"/>
		<stop  offset="0.6111" style="stop-color:#C3C3C3"/>
		<stop  offset="0.6694" style="stop-color:#959595"/>
		<stop  offset="0.7333" style="stop-color:#5A5A5A"/>
		<stop  offset="0.801" style="stop-color:#131313"/>
		<stop  offset="0.8182" style="stop-color:#000000"/>
	</radialGradient>
	<path style="opacity:0.15;fill:url(#SVGID_00000083091135694328884360000005180565968129028778_);" d="M64.22,46.96
		c0.12-3.85-0.99-7.74-3.22-10.97l-7.99,6.89c0.67,1.2,0.96,2.58,0.85,3.93C57.3,45.31,61.63,46.18,64.22,46.96z"/>
</g>
</svg>
