<?xml version="1.0" encoding="utf-8"?>
<!-- Generator: Adobe Illustrator 27.0.1, SVG Export Plug-In . SVG Version: 6.00 Build 0)  -->
<svg version="1.1" id="Layer_1" xmlns="http://www.w3.org/2000/svg" xmlns:xlink="http://www.w3.org/1999/xlink" x="0px" y="0px"
	 viewBox="0 0 70 70" style="enable-background:new 0 0 70 70;" xml:space="preserve">
<style type="text/css">
	.st0{opacity:0.2;}
	.st1{fill:#010101;}
	.st2{fill:url(#SVGID_1_);}
	.st3{opacity:0.2;fill:#010101;}
	.st4{fill:#00AFAF;}
	.st5{opacity:0.15;}
</style>
<g>
	<g class="st0">
		<path class="st1" d="M15.06,44.26c1.35-1.46,3.08-2.28,4.85-2.46c-2.27-0.23-4.61,0.59-6.35,2.46l4.17,4.5
			c0.25-0.27,0.52-0.53,0.79-0.77L15.06,44.26z"/>
		<path class="st1" d="M25.59,45.61c0.06,0,0.12,0.01,0.18,0.01c0-0.01-0.01-0.02-0.02-0.02C25.7,45.6,25.65,45.6,25.59,45.61z"/>
	</g>
	<linearGradient id="SVGID_1_" gradientUnits="userSpaceOnUse" x1="40.4466" y1="0.4039" x2="40.4466" y2="56.8676">
		<stop  offset="0" style="stop-color:#00B2E2"/>
		<stop  offset="0.173" style="stop-color:#009ACE"/>
		<stop  offset="0.3803" style="stop-color:#0580BB"/>
		<stop  offset="0.5738" style="stop-color:#3D6DAC"/>
		<stop  offset="0.7477" style="stop-color:#4E5EA2"/>
		<stop  offset="0.8956" style="stop-color:#56549C"/>
		<stop  offset="1" style="stop-color:#58509A"/>
	</linearGradient>
	<path class="st2" d="M24.75,44.26c0.39,0.42,0.73,0.88,1.02,1.36c-2.88-0.28-5.84,0.76-8.05,3.14l-4.17-4.5
		C16.65,40.92,21.66,40.92,24.75,44.26z M66.16,26.1L45.65,3.93c-1.56-1.69-4.09-1.69-5.65,0l-4.19,4.53l17.63,19.06
		c2.4,2.6,2.4,6.82,0,9.42L34.91,56.98c-0.11,2.62-1.08,5.2-2.93,7.19l2.3,2.49l31.88-34.46C67.72,30.52,67.72,27.79,66.16,26.1z"/>
	<path class="st3" d="M33.4,64.17c1.85-2,2.82-4.58,2.93-7.19l18.54-20.04c2.4-2.6,2.4-6.82,0-9.42L37.24,8.46l4.19-4.53
		c0.6-0.65,1.34-1.04,2.11-1.19c-1.24-0.24-2.57,0.15-3.53,1.19l-4.19,4.53l17.63,19.06c2.4,2.6,2.4,6.82,0,9.42L34.91,56.98
		c-0.11,2.62-1.08,5.2-2.93,7.19l2.31,2.49L35,65.9L33.4,64.17z"/>
	<path class="st4" d="M51.92,29.18L34.29,10.11L31.41,7c-1.56-1.69-4.09-1.69-5.65,0L2.43,32.23l5.7,6.16l3.89,4.21
		c3.94-4.26,10.32-4.26,14.26,0c1.01,1.1,1.76,2.37,2.25,3.73c1.42,3.91,0.67,8.53-2.25,11.69l2.3,2.49l6.06-6.56l17.27-18.67
		C53.48,33.59,53.48,30.86,51.92,29.18z"/>
	<g class="st5">
		<path class="st1" d="M27.57,58.01c2.92-3.16,3.67-7.78,2.25-11.69c-0.49-1.36-1.24-2.63-2.25-3.73c-2.13-2.31-4.98-3.35-7.77-3.16
			c2.36,0.16,4.68,1.21,6.48,3.16c1.01,1.1,1.76,2.37,2.25,3.73c1.42,3.91,0.67,8.53-2.25,11.69l2.3,2.49l0.65-0.7L27.57,58.01z"/>
		<path class="st1" d="M9.42,38.39l-5.7-6.16L27.06,7c0.61-0.66,1.38-1.06,2.18-1.2c-1.22-0.22-2.52,0.18-3.47,1.2L2.43,32.23
			l5.7,6.16l3.89,4.21c0.22-0.24,0.45-0.45,0.68-0.66L9.42,38.39z"/>
	</g>
</g>
</svg>
