<?xml version="1.0" encoding="utf-8"?>
<!-- Generator: Adobe Illustrator 27.0.1, SVG Export Plug-In . SVG Version: 6.00 Build 0)  -->
<svg version="1.1" id="Layer_1" xmlns="http://www.w3.org/2000/svg" xmlns:xlink="http://www.w3.org/1999/xlink" x="0px" y="0px"
	 viewBox="0 0 150 150" style="enable-background:new 0 0 150 150;" xml:space="preserve">
<style type="text/css">
	.st0{fill:url(#SVGID_1_);}
	.st1{fill:url(#SVGID_00000106148904380659947200000012787131391857391005_);}
	.st2{fill:url(#SVGID_00000124119952436172552060000000889801327124228775_);}
	.st3{fill:none;}
	.st4{fill:#1C75BC;}
	.st5{font-family:'Tahoma';}
	.st6{font-size:21px;}
</style>
<g>
	<linearGradient id="SVGID_1_" gradientUnits="userSpaceOnUse" x1="7.396" y1="74.1513" x2="69.1265" y2="74.1513">
		<stop  offset="0" style="stop-color:#00B2E2"/>
		<stop  offset="0.173" style="stop-color:#009ACE"/>
		<stop  offset="0.3803" style="stop-color:#0580BB"/>
		<stop  offset="0.5738" style="stop-color:#3D6DAC"/>
		<stop  offset="0.7477" style="stop-color:#4E5EA2"/>
		<stop  offset="0.8956" style="stop-color:#56549C"/>
		<stop  offset="1" style="stop-color:#58509A"/>
	</linearGradient>
	<path class="st0" d="M38.26,63.75v-2.31c0-12.77-13.82-23.11-30.87-23.11v48.54c0,12.77,13.82,23.11,30.87,23.11
		s30.87-10.35,30.87-23.11C69.13,74.1,55.31,63.75,38.26,63.75z"/>
	
		<linearGradient id="SVGID_00000070808558409867937770000008289336093472785035_" gradientUnits="userSpaceOnUse" x1="38.2612" y1="16.7187" x2="38.2612" y2="85.9078">
		<stop  offset="0" style="stop-color:#00B2E2"/>
		<stop  offset="0.173" style="stop-color:#009ACE"/>
		<stop  offset="0.3803" style="stop-color:#0580BB"/>
		<stop  offset="0.5738" style="stop-color:#3D6DAC"/>
		<stop  offset="0.7477" style="stop-color:#4E5EA2"/>
		<stop  offset="0.8956" style="stop-color:#56549C"/>
		<stop  offset="1" style="stop-color:#58509A"/>
	</linearGradient>
	<path style="fill:url(#SVGID_00000070808558409867937770000008289336093472785035_);" d="M38.26,84.52v2.31
		c10.77,0,20.25,4.14,25.77,10.4c3.21-3.65,5.09-8.01,5.09-12.71c0-12.77-13.82-23.11-30.87-23.11V59.1
		c0-12.77-13.82-23.11-30.87-23.11v25.42C24.44,61.41,38.26,71.76,38.26,84.52z"/>
	
		<linearGradient id="SVGID_00000156551535291206355810000001585407971058443418_" gradientUnits="userSpaceOnUse" x1="45.9775" y1="-6.7732" x2="45.9775" y2="97.8666">
		<stop  offset="0" style="stop-color:#00AFAF"/>
		<stop  offset="1" style="stop-color:#00B2E2"/>
	</linearGradient>
	<path style="fill:url(#SVGID_00000156551535291206355810000001585407971058443418_);" d="M69.13,19.84
		c-17.05,0-30.87,10.35-30.87,23.11v18.49v2.31v23.11c0,8.55-6.21,16.02-15.43,20.01c4.54,1.97,9.81,3.1,15.43,3.1
		c17.05,0,30.87-10.35,30.87-23.11L69.13,19.84L69.13,19.84z"/>
</g>
<g>
	<rect x="70.28" y="64.91" class="st3" width="88.21" height="24.56"/>
	<text transform="matrix(1 0 0 1 70.2756 80.8658)" class="st4 st5 st6">CRYPTO</text>
</g>
</svg>
